<svg width="42" height="42" viewBox="0 0 42 42" fill="none" xmlns="http://www.w3.org/2000/svg">
<path fill-rule="evenodd" clip-rule="evenodd" d="M20.4049 19.9311C15.8095 13.7058 7.12545 11.9569 0.436152 16.1086C4.56846 22.7668 13.0665 25.0637 19.9312 21.595C13.7056 26.1906 11.9569 34.8746 16.1086 41.5639C22.7668 37.4315 25.0637 28.9335 21.5951 22.0689C26.1905 28.2943 34.8746 30.0431 41.5639 25.8914C37.4315 19.2333 28.9336 16.9363 22.0689 20.4049C28.2943 15.8095 30.0431 7.12544 25.8915 0.436152C19.2333 4.56846 16.9362 13.0663 20.4049 19.9311ZM20.9998 21.0005L21.0005 21.0002L21.0002 20.9995L20.9996 20.9999L20.9998 21.0005Z" fill="url(#paint0_linear_444_1230)"/>
<defs>
<linearGradient id="paint0_linear_444_1230" x1="22.9036" y1="2.16444" x2="17.4421" y2="32.4766" gradientUnits="userSpaceOnUse">
<stop stop-color="#D08B84"/>
<stop offset="1" stop-color="#FFE7E5"/>
</linearGradient>
</defs>
</svg>
