<svg width="36" height="36" viewBox="0 0 36 36" fill="none" xmlns="http://www.w3.org/2000/svg">
<rect width="36" height="36" rx="18" fill="black"/>
<path fill-rule="evenodd" clip-rule="evenodd" d="M21.8882 15.5523C23.0939 16.4102 24.5378 16.8686 26.0171 16.863V13.9286C25.7263 13.9294 25.4363 13.8982 25.1523 13.8357V16.1734C23.6696 16.1761 22.2236 15.7124 21.0184 14.8481V20.8832C21.0147 21.8735 20.7434 22.8444 20.2332 23.6928C19.7229 24.5413 18.9927 25.2358 18.1201 25.7025C17.2475 26.1693 16.2649 26.3911 15.2766 26.3442C14.2882 26.2974 13.331 25.9837 12.5063 25.4364C13.2691 26.2089 14.2438 26.7374 15.3069 26.9551C16.37 27.1728 17.4737 27.0698 18.4783 26.6593C19.4829 26.2487 20.3431 25.549 20.9501 24.6487C21.5572 23.7485 21.8836 22.6882 21.8882 21.6021V15.5523ZM22.9583 12.5592C22.3451 11.894 21.9689 11.0446 21.8882 10.1432V9.76172H21.0673C21.1687 10.3347 21.3895 10.8799 21.7153 11.3619C22.0411 11.8438 22.4646 12.2518 22.9583 12.5592ZM14.4071 23.1134C14.1226 22.741 13.9483 22.2961 13.9039 21.8294C13.8595 21.3627 13.947 20.8929 14.1562 20.4735C14.3655 20.0541 14.6882 19.7019 15.0876 19.457C15.487 19.2121 15.9471 19.0844 16.4154 19.0883C16.674 19.0882 16.9311 19.1278 17.1777 19.2057V16.1734C16.8894 16.1352 16.5987 16.1189 16.3079 16.1245V18.4818C15.7075 18.2919 15.0575 18.3351 14.4874 18.6029C13.9173 18.8707 13.4688 19.3434 13.2311 19.9271C12.9934 20.5108 12.9839 21.1627 13.2046 21.753C13.4252 22.3434 13.8597 22.8291 14.4218 23.1134H14.4071Z" fill="#EE1D52"/>
<path fill-rule="evenodd" clip-rule="evenodd" d="M21.0181 14.8285C22.2232 15.6929 23.6693 16.1565 25.1519 16.1539V13.8161C24.3072 13.6373 23.5398 13.1977 22.9579 12.5592C22.4643 12.2518 22.0408 11.8438 21.715 11.3619C21.3892 10.8799 21.1684 10.3347 21.0669 9.76172H18.9071V21.6021C18.9051 22.1262 18.7392 22.6365 18.4326 23.0614C18.126 23.4863 17.6942 23.8044 17.1978 23.9711C16.7014 24.1378 16.1652 24.1447 15.6647 23.9909C15.1641 23.8371 14.7242 23.5302 14.4068 23.1133C13.9038 22.8593 13.5009 22.443 13.2632 21.9317C13.0256 21.4204 12.9669 20.8439 13.0968 20.2951C13.2267 19.7464 13.5375 19.2574 13.979 18.9071C14.4206 18.5568 14.9672 18.3657 15.5307 18.3645C15.7892 18.3653 16.0461 18.4049 16.2929 18.4818V16.1245C15.2265 16.1502 14.1908 16.4869 13.3129 17.0933C12.435 17.6998 11.7531 18.5496 11.351 19.5385C10.9488 20.5274 10.8439 21.6123 11.0491 22.66C11.2543 23.7077 11.7606 24.6727 12.506 25.4364C13.3308 25.9876 14.2896 26.3045 15.2801 26.3534C16.2707 26.4023 17.2559 26.1814 18.1309 25.7141C19.006 25.2469 19.7379 24.5508 20.2489 23.7001C20.7599 22.8494 21.0308 21.8758 21.0327 20.8832L21.0181 14.8285Z" fill="white"/>
<path fill-rule="evenodd" clip-rule="evenodd" d="M25.1522 13.8163V13.1854C24.3764 13.1887 23.6156 12.9716 22.9582 12.5594C23.5386 13.1997 24.3066 13.6397 25.1522 13.8163ZM21.0672 9.76191C21.0672 9.64942 21.033 9.53205 21.0183 9.41956V9.03809H18.0376V20.8834C18.035 21.5466 17.7697 22.1818 17.2997 22.6494C16.8297 23.117 16.1936 23.3789 15.5309 23.3776C15.1407 23.3796 14.7556 23.2891 14.4071 23.1135C14.7245 23.5304 15.1644 23.8372 15.6649 23.9911C16.1655 24.1449 16.7016 24.138 17.1981 23.9713C17.6945 23.8046 18.1263 23.4865 18.4329 23.0616C18.7395 22.6367 18.9054 22.1264 18.9074 21.6023V9.76191H21.0672ZM16.2932 16.1198V15.4498C15.0667 15.283 13.8199 15.537 12.756 16.1702C11.6921 16.8035 10.8739 17.7787 10.4347 18.937C9.99547 20.0953 9.96116 21.3683 10.3374 22.5486C10.7135 23.7289 11.478 24.7469 12.5063 25.4366C11.7665 24.6711 11.2656 23.7065 11.0646 22.6607C10.8636 21.6149 10.9712 20.5331 11.3744 19.5476C11.7777 18.562 12.4589 17.7153 13.335 17.1109C14.2111 16.5066 15.2441 16.1707 16.3079 16.1443L16.2932 16.1198Z" fill="#69C9D0"/>
</svg>
