<svg width="36" height="36" viewBox="0 0 36 36" fill="none" xmlns="http://www.w3.org/2000/svg">
<rect width="36" height="36" rx="18" fill="#00D95F"/>
<path d="M9.00012 26.3334L10.2916 21.5314C9.25005 19.6608 8.91915 17.478 9.35959 15.3835C9.80003 13.289 10.9823 11.4233 12.6894 10.1287C14.3965 8.8342 16.5139 8.19769 18.6532 8.33598C20.7924 8.47427 22.81 9.3781 24.3356 10.8816C25.8612 12.3851 26.7926 14.3875 26.9588 16.5212C27.125 18.6549 26.5148 20.7769 25.2404 22.4978C23.9659 24.2187 22.1125 25.423 20.0204 25.8898C17.9283 26.3566 15.7377 26.0545 13.8507 25.039L9.00012 26.3334ZM14.0846 23.2421L14.3846 23.4197C15.7514 24.2285 17.3478 24.5632 18.9251 24.3717C20.5023 24.1801 21.9718 23.473 23.1045 22.3606C24.2372 21.2483 24.9695 19.793 25.1873 18.2218C25.405 16.6505 25.0961 15.0514 24.3085 13.6738C23.5209 12.2961 22.299 11.2173 20.8331 10.6053C19.3673 9.99334 17.7398 9.88267 16.2043 10.2905C14.6689 10.6984 13.3117 11.6019 12.3443 12.8602C11.3769 14.1185 10.8536 15.661 10.856 17.2472C10.8547 18.5625 11.219 19.8523 11.9084 20.9731L12.0966 21.2827L11.3746 23.9629L14.0846 23.2421Z" fill="white"/>
<path fill-rule="evenodd" clip-rule="evenodd" d="M21.3654 18.4806C21.1895 18.339 20.9836 18.2393 20.7633 18.1892C20.543 18.139 20.3142 18.1397 20.0942 18.1912C19.7637 18.3283 19.5502 18.8461 19.3366 19.1049C19.2916 19.167 19.2254 19.2105 19.1506 19.2273C19.0757 19.2442 18.9972 19.2331 18.9299 19.1963C17.7199 18.7232 16.7058 17.8556 16.0521 16.7344C15.9963 16.6644 15.9699 16.5756 15.9785 16.4866C15.987 16.3976 16.0298 16.3154 16.0978 16.2573C16.336 16.0219 16.5109 15.7303 16.6063 15.4096C16.6275 15.0558 16.5463 14.7034 16.3724 14.3944C16.238 13.9611 15.9821 13.5754 15.6351 13.2827C15.4562 13.2023 15.2577 13.1754 15.0638 13.2051C14.8698 13.2348 14.6886 13.32 14.542 13.4502C14.2875 13.6694 14.0855 13.9428 13.9508 14.2503C13.8162 14.5578 13.7524 14.8915 13.764 15.2268C13.7648 15.4152 13.7887 15.6027 13.8352 15.7852C13.9533 16.2237 14.1349 16.6427 14.3742 17.0288C14.5469 17.3246 14.7353 17.611 14.9386 17.8867C15.5993 18.7922 16.4299 19.5611 17.3842 20.1506C17.8631 20.4502 18.3749 20.6937 18.9095 20.8765C19.4649 21.1278 20.0781 21.2243 20.684 21.1557C21.0292 21.1035 21.3563 20.9674 21.6365 20.7594C21.9167 20.5514 22.1413 20.2778 22.2907 19.9628C22.3785 19.7725 22.4051 19.5597 22.367 19.3537C22.2755 18.9323 21.7111 18.6836 21.3654 18.4806Z" fill="white"/>
</svg>
